<?xml version="1.0" encoding="utf-8"?>
<!-- Generator: Adobe Illustrator 24.1.2, SVG Export Plug-In . SVG Version: 6.00 Build 0)  -->
<svg version="1.1" id="Camada_1" xmlns="http://www.w3.org/2000/svg" xmlns:xlink="http://www.w3.org/1999/xlink" x="0px" y="0px"
	 viewBox="0 0 48 48" style="enable-background:new 0 0 48 48;" xml:space="preserve">
<style type="text/css">
	.st0{fill:#FF0000;}
</style>
<path class="st0" d="M18,33l6-6l6,6l2.3-2.4l-6-6.1l6-6L30,16.1l-6,6.1l-5.9-6l-2.4,2.4l6,6.1l-6,6L18,33z M13,42
	c-0.8,0-1.5-0.3-2.1-0.9C10.3,40.5,10,39.8,10,39V10.5H8v-3h9.4V6h13.2v1.5H40v3h-2V39c0,0.8-0.3,1.5-0.9,2.1
	C36.4,41.7,35.8,42,35,42H13z M34.9,10.5H13V39h21.9V10.5z M13,10.5V39V10.5z"/>
</svg>
