<svg id="Camada_1" data-name="Camada 1" xmlns="http://www.w3.org/2000/svg" viewBox="0 0 125.79 31.11"><defs><style>.cls-1{fill:#fff;}</style></defs><path class="cls-1" d="M128.4,30.11A4.54,4.54,0,0,1,127,33.62a5,5,0,0,1-3.53,1.27,5.19,5.19,0,0,1-3.44-1.11,4.36,4.36,0,0,1-1.48-3.26h1.23A3.34,3.34,0,0,0,121,33a3.94,3.94,0,0,0,2.51.81,3.65,3.65,0,0,0,2.62-1,3.52,3.52,0,0,0,1-2.69q0-3.69-3.76-3.69h-.29V25.33h.29c2.28,0,3.43-1.16,3.43-3.47a3.42,3.42,0,0,0-1-2.57,3.28,3.28,0,0,0-2.4-.93,3.32,3.32,0,0,0-2.39.84A3.68,3.68,0,0,0,120,21.52H118.8a4.52,4.52,0,0,1,1.46-3.12,4.69,4.69,0,0,1,3.22-1.13,4.32,4.32,0,0,1,4.58,4.59,3.89,3.89,0,0,1-2.45,3.93Q128.4,26.74,128.4,30.11Z" transform="translate(-17.27 -17.2)"/><path class="cls-1" d="M143,23.4c0,.65.06,1.55.06,2.68s0,2-.06,2.68a10.32,10.32,0,0,1-.45,2.29,4.8,4.8,0,0,1-1.16,2.09,5.84,5.84,0,0,1-4.32,1.58h-5.8V17.44h5.8A5.84,5.84,0,0,1,141.39,19a4.8,4.8,0,0,1,1.16,2.09A10.32,10.32,0,0,1,143,23.4Zm-1.28,5.07c0-.56,0-1.36,0-2.39s0-1.83,0-2.39a10,10,0,0,0-.34-2,4.1,4.1,0,0,0-.91-1.77,4.87,4.87,0,0,0-3.72-1.33h-4.17V33.55h4.17a4.87,4.87,0,0,0,3.72-1.33,4.1,4.1,0,0,0,.91-1.77A10,10,0,0,0,141.72,28.47Z" transform="translate(-17.27 -17.2)"/><path class="cls-1" d="M31.08,35,27,19.94,22.93,35H21.59L17.27,17.2l1.39.42,3.63,15.1,4-15h1.36l4,15,3.64-15h1.38L32.41,35Z" transform="translate(-17.27 -17.2)"/><path class="cls-1" d="M42.14,34a4.06,4.06,0,0,0,3.23-1.41l.92.73a5.3,5.3,0,0,1-4.22,1.79c-3.23,0-5-2.08-5-6s1.74-6,4.68-6,4.68,2.11,4.68,5.7v.56H38.33C38.33,32.38,39.64,34,42.14,34Zm2.67-7.81a3.32,3.32,0,0,0-6.06,0,6.4,6.4,0,0,0-.42,2.2h6.89A5.19,5.19,0,0,0,44.81,26.2Z" transform="translate(-17.27 -17.2)"/><path class="cls-1" d="M56.49,34.1a4,4,0,0,1-2.86,1,3.89,3.89,0,0,1-3.47-1.65V35H48.92V17.7h1.24v7.09a3.89,3.89,0,0,1,3.47-1.65,4,4,0,0,1,2.86,1c1.19,1.19,1.51,3.13,1.51,5S57.68,32.92,56.49,34.1Zm-3-9.87c-2.86,0-3.3,2.48-3.3,4.9s.44,4.9,3.3,4.9,3.3-2.47,3.3-4.9S56.32,24.23,53.46,24.23Z" transform="translate(-17.27 -17.2)"/><path class="cls-1" d="M65.56,35.12a7.8,7.8,0,0,1-6.11-2.28l1.75-1.72a5.69,5.69,0,0,0,4.41,1.65c2.26,0,3.57-1,3.57-2.64a2.32,2.32,0,0,0-.68-1.8,3.06,3.06,0,0,0-1.89-.73l-2-.29a5.91,5.91,0,0,1-3.28-1.38A4.29,4.29,0,0,1,60,22.63c0-3,2.18-5.07,5.78-5.07a7.2,7.2,0,0,1,5.36,2l-1.68,1.65a5,5,0,0,0-3.76-1.33c-2,0-3.15,1.16-3.15,2.69a2,2,0,0,0,.65,1.6,3.84,3.84,0,0,0,1.94.8l2,.3a5.76,5.76,0,0,1,3.23,1.28,4.54,4.54,0,0,1,1.4,3.54C71.77,33.23,69.18,35.12,65.56,35.12Z" transform="translate(-17.27 -17.2)"/><path class="cls-1" d="M79.65,35.12a6.25,6.25,0,0,1-4.54-1.84c-1.69-1.7-1.67-3.62-1.67-6.94s0-5.24,1.67-6.94a6.25,6.25,0,0,1,4.54-1.84,5.94,5.94,0,0,1,6.16,5.31H83.14a3.56,3.56,0,0,0-6-1.91c-.85.92-1,1.91-1,5.38s.19,4.47,1,5.39a3.6,3.6,0,0,0,6.07-1.92h2.64A6,6,0,0,1,79.65,35.12Z" transform="translate(-17.27 -17.2)"/><path class="cls-1" d="M98,35l-1.19-3.47H90L88.79,35H86L92.33,17.7h2.11L100.77,35ZM93.44,21.61l-2.69,7.67h5.31Z" transform="translate(-17.27 -17.2)"/><path class="cls-1" d="M112.86,35l-8-12.16V35h-2.62V17.7h2.4l8,12.13V17.7h2.62V35Z" transform="translate(-17.27 -17.2)"/><path class="cls-1" d="M25.05,44.82a2.08,2.08,0,0,1-.46,1.52,1.17,1.17,0,0,1-.87.31,1.38,1.38,0,0,1-.59-.11,1.27,1.27,0,0,1-.47-.39v2.16h-.38V43h.38v.46a1.31,1.31,0,0,1,.47-.4,1.55,1.55,0,0,1,.59-.1,1.17,1.17,0,0,1,.87.31A2.05,2.05,0,0,1,25.05,44.82Zm-.41.56a4.5,4.5,0,0,0,0-.56,4.44,4.44,0,0,0,0-.55,2.1,2.1,0,0,0-.14-.47.76.76,0,0,0-.31-.35,1.05,1.05,0,0,0-.52-.12,1,1,0,0,0-.52.12.78.78,0,0,0-.32.35,2.06,2.06,0,0,0-.13.47,3,3,0,0,0,0,.55,3.06,3.06,0,0,0,0,.56,1.86,1.86,0,0,0,.13.46.8.8,0,0,0,.32.36,1,1,0,0,0,.52.12,1.05,1.05,0,0,0,.52-.12.78.78,0,0,0,.31-.36A1.88,1.88,0,0,0,24.64,45.38Z" transform="translate(-17.27 -17.2)"/><path class="cls-1" d="M28.75,44.82a2,2,0,0,1-.44,1.44,1.45,1.45,0,0,1-2,0,2,2,0,0,1-.45-1.44,1.93,1.93,0,0,1,.45-1.43,1.45,1.45,0,0,1,2,0A1.93,1.93,0,0,1,28.75,44.82Zm-.37,0a1.7,1.7,0,0,0-.32-1.19,1.06,1.06,0,0,0-1.48,0,1.7,1.7,0,0,0-.32,1.19A1.68,1.68,0,0,0,26.58,46a1,1,0,0,0,1.48,0A1.68,1.68,0,0,0,28.38,44.82Z" transform="translate(-17.27 -17.2)"/><path class="cls-1" d="M34.26,43l-1.14,3.57h-.39l-1-3-1,3h-.38L29.2,43h.41l.91,3.12,1-3.12h.37l1,3.12L33.84,43Z" transform="translate(-17.27 -17.2)"/><path class="cls-1" d="M37.56,44.9H35.08a1.6,1.6,0,0,0,.3,1.05,1,1,0,0,0,.86.36,1.27,1.27,0,0,0,.54-.1,2,2,0,0,0,.45-.33l.28.22a1.77,1.77,0,0,1-.58.42,1.67,1.67,0,0,1-.71.13,1.37,1.37,0,0,1-1.13-.47,2.06,2.06,0,0,1-.39-1.36,2.14,2.14,0,0,1,.38-1.34A1.26,1.26,0,0,1,36.13,43a1.29,1.29,0,0,1,1,.45,2,2,0,0,1,.38,1.28Zm-.38-.3a2.24,2.24,0,0,0-.12-.67.89.89,0,0,0-.37-.44,1,1,0,0,0-.56-.16.94.94,0,0,0-.55.16.89.89,0,0,0-.37.44,1.92,1.92,0,0,0-.13.67Z" transform="translate(-17.27 -17.2)"/><path class="cls-1" d="M40.55,43.61a.94.94,0,0,0-.31-.22,1,1,0,0,0-.37-.06.86.86,0,0,0-.7.31,1.19,1.19,0,0,0-.25.77v2.2h-.38V43h.38v.47a1,1,0,0,1,.44-.38A1.35,1.35,0,0,1,40,43a1.15,1.15,0,0,1,.86.34Z" transform="translate(-17.27 -17.2)"/><path class="cls-1" d="M44.08,44.9H41.6A1.6,1.6,0,0,0,41.9,46a1,1,0,0,0,.86.36,1.19,1.19,0,0,0,.53-.1,1.81,1.81,0,0,0,.46-.33l.28.22a1.88,1.88,0,0,1-.58.42,1.67,1.67,0,0,1-.71.13,1.37,1.37,0,0,1-1.13-.47,2.06,2.06,0,0,1-.39-1.36,2.14,2.14,0,0,1,.38-1.34,1.26,1.26,0,0,1,1-.48,1.29,1.29,0,0,1,1.05.45,2,2,0,0,1,.38,1.28Zm-.38-.3a1.92,1.92,0,0,0-.13-.67.87.87,0,0,0-.36-.44,1.06,1.06,0,0,0-1.12,0,1,1,0,0,0-.37.44,2.24,2.24,0,0,0-.12.67Z" transform="translate(-17.27 -17.2)"/><path class="cls-1" d="M47.67,46.61h-.38v-.46a1.2,1.2,0,0,1-.47.39,1.35,1.35,0,0,1-.59.11,1.17,1.17,0,0,1-.87-.31,2.08,2.08,0,0,1-.46-1.52,2.05,2.05,0,0,1,.46-1.51,1.17,1.17,0,0,1,.87-.31,1.52,1.52,0,0,1,.59.1,1.23,1.23,0,0,1,.47.4V41.34h.38Zm-.41-1.23a4.5,4.5,0,0,0,0-.56,4.44,4.44,0,0,0,0-.55,2.79,2.79,0,0,0-.14-.47.76.76,0,0,0-.31-.35,1.05,1.05,0,0,0-.52-.12,1.07,1.07,0,0,0-.53.12.76.76,0,0,0-.31.35,2.06,2.06,0,0,0-.13.47,3,3,0,0,0,0,.55,3.06,3.06,0,0,0,0,.56,1.86,1.86,0,0,0,.13.46.78.78,0,0,0,.31.36,1.07,1.07,0,0,0,.53.12,1.05,1.05,0,0,0,.52-.12.78.78,0,0,0,.31-.36A2.44,2.44,0,0,0,47.26,45.38Z" transform="translate(-17.27 -17.2)"/><path class="cls-1" d="M53,44.82a2.08,2.08,0,0,1-.46,1.52,1.17,1.17,0,0,1-.87.31,1.35,1.35,0,0,1-.59-.11,1.2,1.2,0,0,1-.47-.39v.46h-.38V41.34h.38V43.5a1.23,1.23,0,0,1,.47-.4,1.52,1.52,0,0,1,.59-.1,1.17,1.17,0,0,1,.87.31A2.05,2.05,0,0,1,53,44.82Zm-.42.56a3.06,3.06,0,0,0,0-.56,3,3,0,0,0,0-.55,2.06,2.06,0,0,0-.13-.47.76.76,0,0,0-.31-.35,1.05,1.05,0,0,0-.52-.12,1.07,1.07,0,0,0-.53.12.76.76,0,0,0-.31.35,2.06,2.06,0,0,0-.13.47,3,3,0,0,0,0,.55,3.06,3.06,0,0,0,0,.56,1.86,1.86,0,0,0,.13.46.78.78,0,0,0,.31.36,1.07,1.07,0,0,0,.53.12,1.05,1.05,0,0,0,.52-.12.78.78,0,0,0,.31-.36A1.86,1.86,0,0,0,52.6,45.38Z" transform="translate(-17.27 -17.2)"/><path class="cls-1" d="M56.44,43l-1.66,4.54a.88.88,0,0,1-.92.64h-.18v-.33h.14a.69.69,0,0,0,.43-.11.82.82,0,0,0,.22-.38l.29-.79L53.46,43h.41L55,46.16,56,43Z" transform="translate(-17.27 -17.2)"/><path class="cls-1" d="M58.58,46.33V39.82c0-.14.06-.19.19-.19h1.34a1.54,1.54,0,0,1,1.62,1.72v.19A1.57,1.57,0,0,1,61,42.91a1.57,1.57,0,0,1,.8,1.57v.28a1.57,1.57,0,0,1-1.67,1.76h-1.4C58.64,46.52,58.58,46.47,58.58,46.33ZM60,42.56c.51,0,.89-.31.89-1v-.21c0-.69-.37-1-.89-1h-.43c-.14,0-.17,0-.17.19v1.84c0,.13,0,.17.17.17Zm.06,3.23c.54,0,.93-.32.93-1.08v-.34c0-.76-.39-1.07-.93-1.07h-.49c-.14,0-.17,0-.17.17v2.14c0,.14,0,.18.17.18Z" transform="translate(-17.27 -17.2)"/><path class="cls-1" d="M65.74,46.52h-.55A.19.19,0,0,1,65,46.4l-1-2.58h-.52c-.13,0-.17,0-.17.17v2.34c0,.14-.06.19-.19.19h-.46c-.13,0-.19-.05-.19-.19V39.82c0-.14.06-.19.19-.19H64a1.59,1.59,0,0,1,1.58,1.81V42a1.72,1.72,0,0,1-.81,1.62l1.07,2.7C65.87,46.45,65.83,46.52,65.74,46.52Zm-2.27-3.46h.46c.42,0,.81-.32.81-1v-.61c0-.74-.39-1-.81-1h-.46c-.13,0-.17,0-.17.18v2.34C63.3,43,63.34,43.06,63.47,43.06Z" transform="translate(-17.27 -17.2)"/><path class="cls-1" d="M66.52,45.23V42.54c0-.09,0-.12-.12-.12h-.18c-.14,0-.19-.05-.19-.19V42c0-.14,0-.19.19-.19h.21c.09,0,.11,0,.11-.12V41a.18.18,0,0,1,.2-.2h.35c.14,0,.19.07.19.2v.66c0,.09,0,.12.12.12h.47c.14,0,.19,0,.19.19v.27c0,.14,0,.19-.19.19h-.46c-.09,0-.12,0-.12.12v2.69c0,.4.19.6.58.6.14,0,.19.06.19.2v.3c0,.14,0,.19-.19.19C67,46.52,66.52,46.15,66.52,45.23Z" transform="translate(-17.27 -17.2)"/><path class="cls-1" d="M71.35,43.33v.18c0,.19,0,.32,0,.49s-.06.2-.2.2H69.35c-.07,0-.09,0-.09.09v.81c0,.58.35.79.68.79a.63.63,0,0,0,.6-.44.13.13,0,0,1,.15-.11h.44c.11,0,.13.08.12.16a1.24,1.24,0,0,1-1.31,1.11c-.71,0-1.45-.44-1.45-1.73V43.42c0-1.29.74-1.73,1.45-1.73S71.35,42.09,71.35,43.33ZM70,42.38c-.31,0-.69.2-.69.81v.33c0,.07,0,.09.09.09h1.2c.08,0,.1,0,.1-.09v-.33A.71.71,0,0,0,70,42.38Z" transform="translate(-17.27 -17.2)"/><path class="cls-1" d="M74.79,45.5a1.25,1.25,0,0,1-1.32,1.11c-.72,0-1.44-.44-1.44-1.66V43.33c0-1.2.72-1.64,1.44-1.64a1.24,1.24,0,0,1,1.32,1.1c0,.08,0,.17-.12.17h-.43a.13.13,0,0,1-.15-.11.63.63,0,0,0-.6-.45c-.32,0-.67.22-.67.79V45.1c0,.58.35.79.67.79a.62.62,0,0,0,.6-.44.13.13,0,0,1,.15-.11h.43C74.78,45.34,74.8,45.42,74.79,45.5Z" transform="translate(-17.27 -17.2)"/><path class="cls-1" d="M78.43,43.17v3.16c0,.14-.06.19-.2.19h-.39c-.14,0-.2-.05-.2-.19V43.22c0-.61-.37-.83-.69-.82s-.66.28-.66.82v3.11c0,.14-.05.19-.19.19h-.4c-.13,0-.19-.05-.19-.19V39.82c0-.14.06-.19.19-.19h.4c.14,0,.19,0,.19.19v2.34a1.35,1.35,0,0,1,.78-.46C77.73,41.62,78.43,42.11,78.43,43.17Z" transform="translate(-17.27 -17.2)"/><path class="cls-1" d="M79.13,45.17c0-.08,0-.16.12-.16h.82c.09,0,.13,0,.16.12a.49.49,0,0,0,.47.35c.25,0,.53-.16.53-.63V44.2c0-.47-.28-.65-.53-.65h-.38c-.14,0-.19,0-.19-.19v-.8c0-.14.05-.19.19-.19h.38c.25,0,.53-.18.53-.64V41.3c0-.47-.28-.63-.53-.63a.49.49,0,0,0-.47.37c0,.09-.07.11-.16.11h-.82c-.11,0-.12-.08-.12-.16a1.52,1.52,0,0,1,1.62-1.45c.9,0,1.74.5,1.74,2v.25A1.55,1.55,0,0,1,82,43a1.67,1.67,0,0,1,.49,1.24v.45c0,1.46-.84,2-1.74,2A1.51,1.51,0,0,1,79.13,45.17Z" transform="translate(-17.27 -17.2)"/><path class="cls-1" d="M87.23,42v2.09c0,1.47-.66,2.4-2.14,2.4H83.38c-.13,0-.19-.05-.19-.19V39.82c0-.14.06-.19.19-.19h1.71C86.57,39.63,87.23,40.56,87.23,42ZM85.9,42c0-.67-.17-1.17-.87-1.17h-.34c-.14,0-.18,0-.18.18v4.19c0,.14,0,.18.18.18H85c.7,0,.87-.5.87-1.17Z" transform="translate(-17.27 -17.2)"/></svg>