<?xml version="1.0" encoding="UTF-8"?>
<!DOCTYPE svg PUBLIC "-//W3C//DTD SVG 1.1//EN" "http://www.w3.org/Graphics/SVG/1.1/DTD/svg11.dtd">
<!-- Creator: CorelDRAW X6 -->
<svg xmlns="http://www.w3.org/2000/svg" xml:space="preserve" width="565px" height="547px" version="1.1" style="shape-rendering:geometricPrecision; text-rendering:geometricPrecision; image-rendering:optimizeQuality; fill-rule:evenodd; clip-rule:evenodd"
viewBox="0 0 179 174"
 xmlns:xlink="http://www.w3.org/1999/xlink">
 <defs>
  <style type="text/css">
   <![CDATA[
    .str0 {stroke:#FEFEFE;stroke-width:5.62226}
    .str1 {stroke:#FEFEFE;stroke-width:5.62226;stroke-linejoin:round}
    .fil0 {fill:none}
    .fil1 {fill:#FEFEFE}
   ]]>
  </style>
 </defs>
 <g id="Camada_x0020_1">
  <metadata id="CorelCorpID_0Corel-Layer"/>
  <rect class="fil0 str0" x="3" y="3" width="135" height="168" rx="26" ry="33"/>
  <line class="fil0 str0" x1="14" y1="53" x2="120" y2= "53" />
  <line class="fil0 str0" x1="14" y1="72" x2="120" y2= "72" />
  <path class="fil1 str1" d="M92 152l7 -23 6 -22 10 5 10 6 -16 17 -17 17zm28 -32l-14 -8c-2,-1 -2,-4 -1,-6l49 -85c2,-3 4,-4 6,-3l14 9c2,1 2,3 1,5l-50 86c-1,2 -3,3 -5,2zm49 -81l-17 -11c-1,0 -1,-1 -1,-2l5 -8c0,-1 1,-1 2,-1l18 11c0,0 1,1 0,2l-4 8c-1,1 -2,1 -3,1z"/>
 </g>
</svg>
