<?xml version="1.0" encoding="UTF-8"?>
<!DOCTYPE svg PUBLIC "-//W3C//DTD SVG 1.1//EN" "http://www.w3.org/Graphics/SVG/1.1/DTD/svg11.dtd">
<!-- Creator: CorelDRAW X6 -->
<svg xmlns="http://www.w3.org/2000/svg" xml:space="preserve" width="574px" height="547px" version="1.1" style="shape-rendering:geometricPrecision; text-rendering:geometricPrecision; image-rendering:optimizeQuality; fill-rule:evenodd; clip-rule:evenodd"
viewBox="0 0 583 556"
 xmlns:xlink="http://www.w3.org/1999/xlink">
 <defs>
  <style type="text/css">
   <![CDATA[
    .str1 {stroke:#FEFEFE;stroke-width:3.002;stroke-linejoin:round}
    .str0 {stroke:#FEFEFE;stroke-width:18.012}
    .fil0 {fill:none}
    .fil1 {fill:#FEFEFE}
   ]]>
  </style>
 </defs>
 <g id="Camada_x0020_1">
  <metadata id="CorelCorpID_0Corel-Layer"/>
  <g id="_828127520">
   <rect class="fil0 str0" x="9" y="9" width="434" height="538" rx="85" ry="105"/>
   <line class="fil0 str0" x1="45" y1="169" x2="383" y2= "169" />
   <line class="fil0 str0" x1="45" y1="230" x2="362" y2= "230" />
   <path class="fil1 str1" d="M312 450l20 -72 21 -73 32 19 33 19 -53 54 -53 53zm89 -102l-45 -26c-5,-3 -7,-11 -3,-18l158 -274c4,-7 12,-10 18,-7l45 26c5,3 7,12 3,19l-158 273c-4,7 -12,10 -18,7zm158 -260l-56 -33c-3,-1 -3,-5 -1,-8l14 -24c1,-3 5,-5 7,-3l57 32c2,2 3,5 1,8l-14 25c-2,3 -5,4 -8,3z"/>
   <line class="fil0 str0" x1="45" y1="291" x2="326" y2= "291" />
   <line class="fil0 str0" x1="45" y1="351" x2="283" y2= "351" />
   <line class="fil0 str0" x1="45" y1="412" x2="247" y2= "412" />
   <line class="fil0 str0" x1="45" y1="109" x2="383" y2= "109" />
   <line class="fil0 str0" x1="45" y1="473" x2="283" y2= "473" />
  </g>
 </g>
</svg>
