<svg id="Layer_1" data-name="Layer 1" xmlns="http://www.w3.org/2000/svg" viewBox="0 0 512 512"><defs><style>.cls-1{opacity:0.7;}.cls-2{fill:#98e05f;}</style></defs><circle class="cls-1" cx="256" cy="256.01" r="256"/><path class="cls-2" d="M379.76,217.69l-8.62-20.47s20.05-45.24,18.28-47l-26.55-25.91c-1.83-1.79-47.08,18.86-47.08,18.86l-20.87-8.42s-18.44-45.85-21-45.85H236.5c-2.61,0-19.67,45.94-19.67,45.94L196,143.32s-46.2-19.64-48-17.88l-26.49,25.94c-1.84,1.79,19.25,46.11,19.25,46.11l-8.61,20.44S85.34,236,85.34,238.4v36.71c0,2.57,46.94,19.28,46.94,19.28l8.61,20.41s-20,45.2-18.29,46.94l26.53,26c1.8,1.75,47.07-18.9,47.07-18.9l20.88,8.46s18.44,45.82,21,45.82h37.46c2.59,0,19.67-46,19.67-46l20.9-8.45s46.1,19.63,47.89,17.91l26.53-25.95c1.85-1.81-19.29-46.1-19.29-46.1l8.6-20.44s46.84-18.07,46.84-20.54V236.9C426.68,234.36,379.76,217.69,379.76,217.69Zm-69,38.31c0,29.52-24.56,53.55-54.72,53.55s-54.72-24-54.72-53.55,24.58-53.52,54.72-53.52S310.73,226.48,310.73,256Z"/></svg>