<svg id="Layer_1" data-name="Layer 1" xmlns="http://www.w3.org/2000/svg" viewBox="0 0 512 512"><defs><style>.cls-1{opacity:0.7;}.cls-2{fill:#fff;}.cls-3{isolation:isolate;}</style></defs><circle class="cls-1" cx="256" cy="256.01" r="256"/><polygon class="cls-2" points="408.32 408.32 303.54 408.32 303.54 391.78 391.78 391.78 391.78 303.54 408.32 303.54 408.32 408.32"/><polygon class="cls-2" points="208.46 408.32 103.68 408.32 103.68 303.54 120.22 303.54 120.22 391.78 208.46 391.78 208.46 408.32"/><polygon class="cls-2" points="120.22 208.46 103.68 208.46 103.68 103.68 208.46 103.68 208.46 120.22 120.22 120.22 120.22 208.46"/><polygon class="cls-2" points="408.32 208.46 391.78 208.46 391.78 120.22 303.54 120.22 303.54 103.68 408.32 103.68 408.32 208.46"/><g class="cls-3"><path class="cls-2" d="M253.21,235.62h0l-15.89-6.89-21.13-9.09-7.55,1.92-.09,10.07L208,285,245,300.94l6.51,2.81,7.55-1.92.14-14.57.42-38.76v0l.1-10Zm-8.06,50.09-23.05-9.94.37-38.09,23.1,9.93Z"/><path class="cls-2" d="M297.54,224.23l-37.06-16-44.33,11.39-7.55,1.92-.09,10.07,14,6.05,23.1,9.93,6.52,2.81,7.54-1.92,28.87-7.45,1.36-.33,14.1-3.6.1-10.08Zm-44.37,11.39-15.89-6.89,22-5.67,16,6.89-22.07,5.67Z"/><path class="cls-2" d="M297.54,224.23,275.28,230l-22.07,5.67h0l-7.5,1.92-.1,10.07-.42,38.1L245,300.94l6.51,2.81,7.55-1.92,44.33-11.39.56-53.32.1-10.08Zm-8.1,55.29-30.23,7.74.42-38.76v0l28.87-7.41,1.36-.33Z"/></g></svg>