<svg id="Layer_1" data-name="Layer 1" xmlns="http://www.w3.org/2000/svg" viewBox="0 0 512 512"><defs><style>.cls-1{opacity:0.7;}.cls-2{fill:#98e05f;}</style></defs><circle class="cls-1" cx="256" cy="256.01" r="256"/><polygon class="cls-2" points="278.57 362.82 265.26 350.96 255.36 342.22 247.2 350.96 243.5 354.95 252.58 362.82 263.87 372.61 276.55 383.6 269.37 389.86 241.76 413.94 253.63 426.67 296.52 388.52 302.07 383.6 288.59 371.62 278.57 362.82"/><circle class="cls-2" cx="255.88" cy="120.13" r="34.8"/><path class="cls-2" d="M291.37,334.69V276.63h7.52a13.4,13.4,0,0,0,13.32-13.31V181.07a13.35,13.35,0,0,0-13.32-13.26H213.11a13.34,13.34,0,0,0-13.32,13.26v82.25a13.39,13.39,0,0,0,13.32,13.31h7.52v58.06c-34.09,2.2-76,8.68-76,27.09C144.63,388,229.84,390,256,390c1.33,0,2.78,0,4.4-.06l7.35-6.37-12.62-10.94c-47.93-.05-78.55-6.19-89.66-10.88,8.16-3.41,27-7.7,55.45-9.67a13.11,13.11,0,0,0,13,10.71h9.84l-8.63-7.46,3.88-4.17,15.92-17,19.27,17.08,10.83,9.55a13.23,13.23,0,0,0,6-8.69c28.48,2,47.29,6.26,55.45,9.67C338.89,365,322,368.9,296.63,371l14.19,12.56-4.58,4.06c30.28-3.07,61.13-10.13,61.13-25.88C367.37,343.37,325.4,336.89,291.37,334.69Z"/></svg>