<svg id="Layer_1" data-name="Layer 1" xmlns="http://www.w3.org/2000/svg" viewBox="0 0 512 512"><defs><style>.cls-1{opacity:0.7;}.cls-2{fill:#98e05f;}</style></defs><circle class="cls-1" cx="256" cy="256.01" r="256"/><polygon class="cls-2" points="426.67 263.43 426.67 263.43 426.67 263.42 404.45 263.42 404.45 241.14 382.17 241.14 382.17 218.93 382.15 218.93 382.15 218.91 345.06 218.91 345.06 166.98 345.05 166.98 345.05 166.96 322.78 166.96 322.78 166.98 322.78 166.98 322.78 166.96 322.78 166.96 322.78 144.7 322.78 144.7 322.78 144.7 300.56 144.7 300.56 122.42 211.5 122.42 211.5 122.44 211.48 122.44 211.48 144.7 189.22 144.7 189.22 144.7 189.22 144.7 189.22 166.96 189.22 166.96 189.22 166.98 189.22 166.98 189.22 166.96 166.95 166.96 166.95 166.98 166.94 166.98 166.94 218.91 129.85 218.91 129.85 241.14 107.61 241.14 107.61 241.17 107.59 241.17 107.59 263.42 85.33 263.42 85.33 263.43 85.33 263.43 85.33 345.05 107.59 345.05 107.59 345.03 107.61 345.03 107.61 345.05 107.59 345.05 107.59 367.31 107.61 367.31 107.61 367.31 129.9 367.31 129.9 367.31 129.85 367.31 129.85 389.58 129.9 389.58 129.9 389.6 382.17 389.6 382.17 367.31 404.45 367.31 404.45 345.05 426.67 345.05 426.67 263.43"/></svg>