<svg id="Layer_1" data-name="Layer 1" xmlns="http://www.w3.org/2000/svg" viewBox="0 0 512 512"><defs><style>.cls-1{opacity:0.7;}.cls-2{isolation:isolate;}.cls-3{fill:#fff;}</style></defs><circle class="cls-1" cx="256" cy="256.01" r="256"/><g class="cls-2"><path class="cls-3" d="M253.14,220.69h0l-16.3-7.06-21.68-9.33-7.74,2-.09,10.34-.58,54.76,38,16.34,6.68,2.89,7.74-2,.14-15,.44-39.75v0l.09-10.29Zm-8.27,51.4L221.22,261.9l.38-39.09L245.3,233Z"/><path class="cls-3" d="M298.62,209l-38-16.39L215.11,204.3l-7.74,2-.09,10.34,14.32,6.2L245.3,233l6.69,2.89,7.74-2,29.61-7.65,1.4-.33,14.47-3.71.09-10.33Zm-45.53,11.68-16.3-7.06,22.6-5.82,16.39,7.07-22.64,5.81Z"/><path class="cls-3" d="M298.62,209l-22.84,5.87-22.64,5.81h0l-7.69,2L245.3,233l-.43,39.09-.14,15.62,6.68,2.89,7.74-2,45.48-11.69.58-54.71.09-10.33Zm-8.32,56.73-31,7.93.44-39.75v0l29.61-7.6,1.4-.33Z"/></g><path class="cls-3" d="M256,397.88v-17c76.81,0,139.3-62.49,139.3-139.3S332.81,102.3,256,102.3,116.7,164.8,116.7,241.61h-17c0-86.17,70.11-156.28,156.28-156.28s156.28,70.11,156.28,156.28S342.17,397.88,256,397.88Z"/><polygon class="cls-3" points="278.06 344.94 291.49 355.34 262.71 390.1 299.13 412.53 289.7 426.67 238.11 394.12 278.06 344.94"/></svg>