<svg id="Layer_1" data-name="Layer 1" xmlns="http://www.w3.org/2000/svg" viewBox="0 0 512 512"><defs><style>.cls-1{opacity:0.7;}.cls-2{fill:#fff;}</style></defs><circle class="cls-1" cx="256" cy="256.01" r="256"/><path class="cls-2" d="M232.86,248.67l.15,15.71v.07l.66,60.73.22,22.84,11.82,3,10.21-4.41,58.08-25L313.12,238,313,222.23l-11.82-3L268,233.46l-24.89,10.8h-.07ZM255,263.06l36.2-15.57.58,59.7L255.7,322.76Z"/><path class="cls-2" d="M163.39,230.82l.15,15.79,22.1,5.65,2.13.52L233,264.45l11.82,3,10.21-4.4,36.2-15.57L313.12,238,313,222.23l-11.82-3-69.47-17.84-58.08,25Zm79.68,13.44-34.59-8.89,25-10.79L268,233.46l-24.89,10.8Z"/><path class="cls-2" d="M163.39,230.82l.15,15.79.88,83.56L233.89,348l11.82,3,10.21-4.41-.22-23.86-.66-59.7-.15-15.79-11.75-3h-.07l-34.59-8.89-34.88-9Zm22.25,21.44,2.13.52L233,264.38v.07l.66,60.73L186.3,313.06Z"/><path class="cls-2" d="M378.6,358.22a.68.68,0,0,1,.1-.72l11-16.19a.32.32,0,0,0,0-.41l-11-16.13a1.11,1.11,0,0,1-.14-.48q0-.54.69-.54h6.66a1.08,1.08,0,0,1,1,.54l7.07,10.48a.44.44,0,0,0,.28.14.21.21,0,0,0,.2-.14l7.08-10.48a1.08,1.08,0,0,1,.95-.54h7.15a.6.6,0,0,1,.54,1l-11,16.13a.58.58,0,0,0,0,.41l11,16.19a1.15,1.15,0,0,1,.14.48c0,.36-.23.54-.68.54h-6.67A1.05,1.05,0,0,1,402,358L394.9,347.5a.23.23,0,0,0-.21-.14.4.4,0,0,0-.27.14L387.34,358a1.05,1.05,0,0,1-.95.54h-7.14A.68.68,0,0,1,378.6,358.22Z"/><path class="cls-2" d="M252.88,156.74a1.16,1.16,0,0,1-.14-.58v-4.9a.78.78,0,0,1,.24-.58.83.83,0,0,1,.58-.24h.07a15.68,15.68,0,0,0,4.35-.57,5.09,5.09,0,0,0,2.59-1.94,14.42,14.42,0,0,0,1.84-4.29.7.7,0,0,0,0-.41l-11.24-33.69a.8.8,0,0,1-.06-.34c0-.4.22-.61.68-.61h6.67a.9.9,0,0,1,1,.68l6.81,24c0,.13.11.2.2.2s.16-.07.21-.2l6.8-24a.89.89,0,0,1,.95-.68h6.47a.64.64,0,0,1,.57.24.8.8,0,0,1,0,.71l-12,35.8a32.2,32.2,0,0,1-3.33,7.21,9,9,0,0,1-4.46,3.41,24.54,24.54,0,0,1-8,1h-.47A.39.39,0,0,1,252.88,156.74Z"/><path class="cls-2" d="M151.16,406.39a.78.78,0,0,1-.24-.58V400a1.3,1.3,0,0,1,.34-1L168,379.41c.22-.28.16-.41-.21-.41H152.08a.77.77,0,0,1-.58-.24.78.78,0,0,1-.24-.58v-5.51a.78.78,0,0,1,.24-.58.77.77,0,0,1,.58-.24h24.77a.82.82,0,0,1,.81.82v5.78a1.32,1.32,0,0,1-.4,1l-17.09,19.66c-.18.28-.11.41.21.41h16.67a.82.82,0,0,1,.82.82v5.51a.82.82,0,0,1-.82.82H151.74A.77.77,0,0,1,151.16,406.39Z"/><rect class="cls-2" x="226.84" y="103.68" width="9.64" height="84.22"/><rect class="cls-2" x="88.54" y="369.45" width="87.01" height="9.64" transform="translate(-225.27 201.54) rotate(-44.77)"/><rect class="cls-2" x="325.07" y="304.12" width="89.17" height="9.64"/></svg>