<svg id="Layer_1" data-name="Layer 1" xmlns="http://www.w3.org/2000/svg" viewBox="0 0 512 512"><defs><style>.cls-1{opacity:0.7;}.cls-2{fill:#98e05f;}</style></defs><circle class="cls-1" cx="256" cy="256.01" r="256"/><path class="cls-2" d="M390.21,156.34c-16.49-15.58-34.67-16.07-47.57-8.47a34.73,34.73,0,0,0-53.85-25,34.75,34.75,0,0,0-65.58,0c-12.89-8.63-31.8-8.94-49.14,7.14a15.44,15.44,0,0,0-4.93,11.26v41.62L134.2,217.85a56.35,56.35,0,0,0-16.33,33.69c-9.29,87,58.94,160.81,144.09,160.81h41.23A91.8,91.8,0,0,0,395,320.56V167.39A15.26,15.26,0,0,0,390.21,156.34ZM377.6,320.56A74.4,74.4,0,0,1,303.19,395H262A127.71,127.71,0,0,1,135.18,253.08a38.65,38.65,0,0,1,11.29-22.93l22.67-22.67v31.15a8.69,8.69,0,0,0,17.37,0v-95.1c15.22-17.62,34.75-6.92,34.75,8.24v8.68a8.69,8.69,0,1,0,17.37,0V126.16c15.21-17.62,34.74-6.92,34.74,8.24v26a8.69,8.69,0,1,0,17.37,0V143.54c15.21-17.63,34.75-6.93,34.75,8.23v34.74a8.69,8.69,0,1,0,17.37,0V169.59c15.21-17.62,34.74-6.92,34.74,8.24Z"/></svg>