<svg id="Layer_1" data-name="Layer 1" xmlns="http://www.w3.org/2000/svg" viewBox="0 0 512 512"><defs><style>.cls-1{opacity:0.7;}.cls-2{fill-rule:evenodd;}.cls-3{fill:#98e05f;}</style></defs><g class="cls-1"><path class="cls-2" d="M512,256a254.76,254.76,0,0,1-75,181c-3.79,3.85-7.77,7.51-11.82,11.1A255.95,255.95,0,0,1,75,75,256,256,0,0,1,512,256Z"/></g><path class="cls-3" d="M249.68,209.75h-.11l-36-15.62L165.59,173.5l-17.11,4.36-.21,22.86L147,321.79l84.08,36.14,14.78,6.38L263,360l.32-33.06,1-87.91v-.1l.21-22.75ZM231.39,323.39l-52.3-22.54.85-86.42L232.35,237Z"/><path class="cls-3" d="M350.24,183.92l-84.09-36.25L165.59,173.5l-17.11,4.36-.21,22.86,31.67,13.71L232.35,237l14.77,6.38L264.24,239l65.48-16.9,3.08-.74,32-8.19L365,190.3ZM249.57,209.75l-36-15.62,50-12.87,36.24,15.63-50.06,12.86Z"/><path class="cls-3" d="M350.24,183.92l-50.5,13-50.06,12.86h-.11l-17,4.36L232.35,237l-1,86.43-.32,34.54,14.78,6.38L263,360l100.56-25.83,1.28-121L365,190.3ZM331.85,309.35l-68.57,17.54,1-87.91v-.1l65.48-16.8,3.08-.74Z"/></svg>