<svg id="Layer_1" data-name="Layer 1" xmlns="http://www.w3.org/2000/svg" viewBox="0 0 512 512"><defs><style>.cls-1{opacity:0.7;}.cls-2{fill:#fff;}</style></defs><circle class="cls-1" cx="256" cy="256.01" r="256"/><path class="cls-2" d="M256,426.85c-86.3,0-156.5-70.2-156.5-156.5s70.2-156.5,156.5-156.5v17c-76.92,0-139.51,62.58-139.51,139.5S179.08,409.85,256,409.85s139.51-62.58,139.51-139.5h17C412.5,356.65,342.3,426.85,256,426.85Z"/><polygon class="cls-2" points="234.15 166.93 220.65 156.59 249.27 121.62 212.68 99.35 222.04 85.15 273.88 117.46 234.15 166.93"/><path class="cls-2" d="M245.15,244.83a31.63,31.63,0,0,1-1.73,10.62,19.9,19.9,0,0,1-7.91,10.34,23.76,23.76,0,0,1-13.33,3.64,22.75,22.75,0,0,1-13.49-4,21,21,0,0,1-8-10.83,27.58,27.58,0,0,1-1.41-8.67,1,1,0,0,1,1.09-1.08h8.34a1,1,0,0,1,1.08,1.08,22.65,22.65,0,0,0,.87,5.74,11.92,11.92,0,0,0,4.06,6.4,11.51,11.51,0,0,0,7.43,2.38q8.23,0,11-7.48a21.41,21.41,0,0,0,1.41-8.45,26.51,26.51,0,0,0-1.73-9.86q-3-6.72-10.84-6.72a9.92,9.92,0,0,0-4.66,1.63,1.62,1.62,0,0,1-.65.22,1,1,0,0,1-.87-.55l-4.11-5.63a1.68,1.68,0,0,1-.22-.76,1.37,1.37,0,0,1,.32-.76l18.53-19.83q.33-.54-.21-.54H201.37a1,1,0,0,1-1.08-1.08v-6.83a1,1,0,0,1,1.08-1.08h42a1,1,0,0,1,1.08,1.08v7.8a2.38,2.38,0,0,1-.54,1.3l-16.47,18c-.15.15-.18.27-.11.38a.8.8,0,0,0,.43.27,18.06,18.06,0,0,1,9.32,3.41,18.6,18.6,0,0,1,5.85,7.64A32.15,32.15,0,0,1,245.15,244.83Z"/><path class="cls-2" d="M303.23,244.93a28.79,28.79,0,0,1-2.17,11.6,19.4,19.4,0,0,1-7.74,9.48,23.49,23.49,0,0,1-12.73,3.31A24.16,24.16,0,0,1,267,265.63a19.55,19.55,0,0,1-7.85-10.4,31.27,31.27,0,0,1-1.63-10.51V211.34q0-8.88,6.18-14.19t16.14-5.31a25.85,25.85,0,0,1,11.33,2.38,17.63,17.63,0,0,1,10.35,16.47v2.17a1,1,0,0,1-1.08,1.09h-8.24a1,1,0,0,1-1.09-1.09v-1A10.49,10.49,0,0,0,288,204a11.21,11.21,0,0,0-8.14-3,12,12,0,0,0-8.61,3.14,11,11,0,0,0-3.3,8.35v13.65c0,.15,0,.24.16.27s.23,0,.38-.16Q273.1,221,282,221q12.79,0,18.21,10.18A29.15,29.15,0,0,1,303.23,244.93Zm-10.4,0a17.6,17.6,0,0,0-1.95-8.88q-3.15-6.28-10.62-6.28a12.09,12.09,0,0,0-6.5,1.68,10.59,10.59,0,0,0-4.12,4.81,21.15,21.15,0,0,0-1.73,9.22,18.57,18.57,0,0,0,1.41,7.69,10.77,10.77,0,0,0,4.22,5.26,12.5,12.5,0,0,0,6.83,1.79c5.27,0,8.89-2.32,10.83-6.94A19.43,19.43,0,0,0,292.83,244.93Z"/><path class="cls-2" d="M321.17,263.41q-6.45-6.23-6.45-16.74V214.59q0-10.5,6.45-16.69t17.39-6.17q10.94,0,17.5,6.17t6.55,16.69v32.08q0,10.52-6.55,16.74t-17.5,6.23Q327.61,269.64,321.17,263.41ZM348.53,257a13,13,0,0,0,3.68-9.7V214.16a13,13,0,0,0-3.68-9.7q-3.69-3.63-10-3.63a13.27,13.27,0,0,0-9.75,3.63,13,13,0,0,0-3.69,9.7v33.16a13,13,0,0,0,3.69,9.7,13.27,13.27,0,0,0,9.75,3.63Q344.83,260.65,348.53,257Z"/><path class="cls-2" d="M380.06,226.13a16.23,16.23,0,0,1-5.42-7.42,24.09,24.09,0,0,1-1.3-8.45,25.42,25.42,0,0,1,1.19-8.45,14.34,14.34,0,0,1,5.31-7.37,15,15,0,0,1,8.88-2.6,14,14,0,0,1,8.46,2.6,15.31,15.31,0,0,1,5.31,7.26,25.11,25.11,0,0,1,1.19,8.45,26.68,26.68,0,0,1-1.19,8.56,14.75,14.75,0,0,1-5.31,7.42,14.27,14.27,0,0,1-8.56,2.66A13.94,13.94,0,0,1,380.06,226.13Zm13.22-4.82a8.09,8.09,0,0,0,2.81-4.33,23.61,23.61,0,0,0,.87-6.72,21.9,21.9,0,0,0-.76-6.61,8.43,8.43,0,0,0-2.92-4.39,7.66,7.66,0,0,0-4.77-1.57,7.17,7.17,0,0,0-4.66,1.57,8.79,8.79,0,0,0-2.82,4.39,21.2,21.2,0,0,0-.86,6.61A25.91,25.91,0,0,0,381,217a8.26,8.26,0,0,0,2.77,4.33,7.71,7.71,0,0,0,9.48,0Z"/></svg>