<svg id="Layer_1" data-name="Layer 1" xmlns="http://www.w3.org/2000/svg" viewBox="0 0 512 512"><defs><style>.cls-1{opacity:0.7;}.cls-2{fill:#98e05f;}</style></defs><circle class="cls-1" cx="256" cy="256.01" r="256"/><path class="cls-2" d="M193.58,165.45a1.2,1.2,0,0,0-1.86,0l-39.35,49.24a1.19,1.19,0,0,0,.93,1.93H232a1.19,1.19,0,0,0,.93-1.93Z"/><path class="cls-2" d="M232,295H153.3a1.19,1.19,0,0,0-.93,1.93l39.35,49.24a1.2,1.2,0,0,0,1.86,0L232.93,297A1.19,1.19,0,0,0,232,295Z"/><path class="cls-2" d="M297.31,359.63l49.24-39.35a1.2,1.2,0,0,0,0-1.86l-49.24-39.35a1.19,1.19,0,0,0-1.93.93v78.7A1.19,1.19,0,0,0,297.31,359.63Z"/><path class="cls-2" d="M263.32,248.68V122H122V390H390V248.68ZM136.54,136.54H248.76V248.68H136.54Zm0,238.92V263.32H248.68V375.46Zm238.92,0H263.32V263.24H375.46Z"/></svg>