<svg id="bold" enable-background="new 0 0 24 24" height="512" viewBox="0 0 24 24" width="512" xmlns="http://www.w3.org/2000/svg"><path d="m1 8c-.553 0-1-.448-1-1v-4c0-1.654 1.346-3 3-3h4c.553 0 1 .448 1 1s-.447 1-1 1h-4c-.552 0-1 .449-1 1v4c0 .552-.447 1-1 1z"/><path d="m21 24h-4c-.553 0-1-.448-1-1s.447-1 1-1h4c.552 0 1-.449 1-1v-4c0-.552.447-1 1-1s1 .448 1 1v4c0 1.654-1.346 3-3 3z"/><path d="m23 8c-.553 0-1-.448-1-1v-4c0-.551-.448-1-1-1h-4c-.553 0-1-.448-1-1s.447-1 1-1h4c1.654 0 3 1.346 3 3v4c0 .552-.447 1-1 1z"/><path d="m7 24h-4c-1.654 0-3-1.346-3-3v-4c0-.552.447-1 1-1s1 .448 1 1v4c0 .551.448 1 1 1h4c.553 0 1 .448 1 1s-.447 1-1 1z"/><path d="m12 5 7 3-7 3-7-3z"/><path d="m13 12.747v5.824l6-2.571v-5.824z"/><path d="m11 12.747-6-2.571v5.824l6 2.571z"/></svg>