<svg height="512" viewBox="0 0 60 60" width="512" xmlns="http://www.w3.org/2000/svg"><g id="Page-1" fill="none" fill-rule="evenodd"><g id="025---Building-3D-Map" fill="rgb(0,0,0)" fill-rule="nonzero"><path id="Shape" d="m8 7h2c.5522847 0 1-.44771525 1-1v-1c0-.55228475.4477153-1 1-1h6c.5522847 0 1 .44771525 1 1v1c0 .55228475.4477153 1 1 1h2c.5522847 0 1-.44771525 1-1v-1c0-1.32608245-.5267842-2.59785201-1.4644661-3.53553391-.9376819-.93768189-2.2094515-1.46446609-3.5355339-1.46446609h-6c-2.76142375 0-5 2.23857625-5 5v1c0 .55228475.44771525 1 1 1z"/><circle id="Oval" cx="15.002" cy="19" r="4"/><path id="Shape" d="m7 32h16c1.1045695 0 2-.8954305 2-2v-1h-6c-.5522847 0-1-.4477153-1-1s.4477153-1 1-1h6v-16c0-1.1045695-.8954305-2-2-2h-16c-1.10320187.0032948-1.9967052.89679813-2 2v16h6c.5522847 0 1 .4477153 1 1s-.4477153 1-1 1h-6v1c.0032948 1.1032019.89679813 1.9967052 2 2zm2-13c0-3.3137085 2.6862915-6 6-6s6 2.6862915 6 6-2.6862915 6-6 6-6-2.6862915-6-6z"/><path id="Shape" d="m13 54c0 .5522847.4477153 1 1 1h2c.5522847 0 1-.4477153 1-1v-20h-4z"/><path id="Shape" d="m.058 58.67c-.10680907.3055305-.05913953.6438614.12793165.9079853.18707118.2641238.49040707.4213738.81406835.4220147h2.12c.42728847.0025692.80899998-.2666378.95-.67l7.93-22.9v-2.43h-3.4z"/><path id="Shape" d="m21.4 34h-3.4v2.43l7.93 22.9c.141.4033622.5227115.6725692.95.67h2.12c.3233079-.0012862.6260457-.1588027.8126492-.4228269.1866036-.2640241.2340458-.6019751.1273508-.9071731z"/><path id="Shape" d="m59.083 52.052c.3668882-.5892371.4002365-1.327068.088-1.947l-2.053-4.105h.264c.6947884.0010227 1.3403254-.3586134 1.7051109-.9499369.3647854-.5913236.396545-1.3295969.0838891-1.9500631l-9-18c-.3380169-.6775994-1.0317821-1.1041738-1.789-1.1h-19.382c-.5522847 0-1 .4477153-1 1s.4477153 1 1 1h11.522c.3262837.3950698.4623252.9136364.372 1.418-.1949926.600363-.68684 1.0570244-1.3 1.207-.7001407.2187954-1.4153952.3859109-2.14.5-1.0785533.1539338-2.1341205.4397396-3.143.851-1.2864643.5045123-2.1985351 1.6665126-2.383 3.036-.1074675 1.4380582.5701737 2.8220218 1.772 3.619 2.12 1.572 4.641 1.551 7.1 1.545 1.2721762-.0615153 2.5472076.0233749 3.8.253 2.667.624 5.228 2.571 5.413 5.571h-21.223c-.5522847 0-1 .4477153-1 1s.4477153 1 1 1h26.092l2.5 5h-26.172c-.5522847 0-1 .4477153-1 1s.4477153 1 1 1h23.672l2.5 5h-24.492c-.5522847 0-1 .4477153-1 1s.4477153 1 1 1h24.492c.6947884.0010227 1.3403254-.3586134 1.7051109-.9499369.3647854-.5913236.396545-1.3295969.0838891-1.9500631l-2.053-4.1h.264c.6936473.002739 1.3384619-.3566286 1.701-.948zm-14.032-15.571c-1.4041831-.2652706-2.8345025-.36595-4.262-.3-2.216.009-4.31.024-5.9-1.152-.6238264-.3826258-.9968091-1.0683958-.979-1.8.1197106-.6605985.584708-1.2061496 1.218-1.429.8632583-.3423187 1.7643029-.5803368 2.684-.709.8205872-.1296863 1.6304618-.3198715 2.423-.569 1.2627606-.3645157 2.2466196-1.357078 2.6-2.623.1512653-.628441.1232021-1.2867132-.081-1.9h5.627l9 18h-5.371c-.181-3.559-2.9-6.569-6.959-7.518z"/></g></g></svg>