<?xml version="1.0" encoding="iso-8859-1"?>
<!-- Generator: Adobe Illustrator 19.0.0, SVG Export Plug-In . SVG Version: 6.00 Build 0)  -->
<svg version="1.1" id="Capa_1" xmlns="http://www.w3.org/2000/svg" xmlns:xlink="http://www.w3.org/1999/xlink" x="0px" y="0px"
	 viewBox="0 0 512.001 512.001" style="enable-background:new 0 0 512.001 512.001;" xml:space="preserve">
<g>
	<g>
		<path d="M497,421.99c-8.291,0-15,6.709-15,15v23.789l-61-61V236.141l-150,60v180.005l131.391-52.555l58.398,58.398H437
			c-8.291,0-15,6.709-15,15c0,8.291,6.709,15,15,15h60c1.952,0,3.895-0.396,5.728-1.154c3.673-1.52,6.599-4.446,8.119-8.119
			c0.758-1.833,1.154-3.776,1.154-5.728v-60C512,428.699,505.291,421.99,497,421.99z"/>
	</g>
</g>
<g>
	<g>
		<path d="M91,236.143v163.636l-61,61V436.99c0-8.291-6.709-15-15-15s-15,6.709-15,15v60c0,1.952,0.396,3.895,1.154,5.728
			c2.342,5.658,7.877,9.272,13.846,9.272h60c8.291,0,15-6.709,15-15c0-8.291-6.709-15-15-15H51.211l58.398-58.398L241,476.147v-180
			L91,236.143z"/>
	</g>
</g>
<g>
	<g>
		<path d="M271,155.833V51.201l16.816,16.816c5.859,5.859,15.352,5.859,21.211,0s5.859-15.352,0-21.211L266.624,4.403
			c-5.852-5.867-15.419-5.843-21.248,0l-42.404,42.404c-5.859,5.859-5.859,15.352,0,21.211c5.859,5.859,15.352,5.859,21.211,0
			L241,51.201v104.632l-134.996,53.998L256,269.833l149.996-60.002L271,155.833z"/>
	</g>
</g>
<g>
</g>
<g>
</g>
<g>
</g>
<g>
</g>
<g>
</g>
<g>
</g>
<g>
</g>
<g>
</g>
<g>
</g>
<g>
</g>
<g>
</g>
<g>
</g>
<g>
</g>
<g>
</g>
<g>
</g>
</svg>
